<svg width="27" height="27" viewBox="0 0 27 27" fill="none" xmlns="http://www.w3.org/2000/svg">
<path fill-rule="evenodd" clip-rule="evenodd" d="M15.2724 25.637H11.6619L1.36301 15.3381V11.6619L11.6619 1.36301H15.3381L25.637 11.6619V15.3356L15.2724 25.637ZM27 15.9026L15.8345 27H11.0974L0 15.9026V11.0974L11.0974 0H15.9026L27 11.0974V15.9026Z" fill="white"/>
<path fill-rule="evenodd" clip-rule="evenodd" d="M9.26715 6.43303L11.4709 5.52023L12.7389 7.23159C13.2343 7.17039 13.7297 7.16978 14.2153 7.22565L15.4789 5.52022L17.6826 6.43303L17.3721 8.52026C17.7625 8.82566 18.1193 9.17942 18.4321 9.57736L20.5168 9.26717L21.4296 11.4709L19.7331 12.7279C19.7918 13.2284 19.7889 13.7286 19.7285 14.2185L21.4296 15.479L20.5168 17.6827L18.4051 17.3684C18.1036 17.7467 17.7564 18.0926 17.3671 18.3966L17.6826 20.5168L15.4789 21.4296L14.19 19.69C13.7115 19.7429 13.2334 19.7395 12.7646 19.6834L11.4709 21.4296L9.26715 20.5168L9.58885 18.3549C9.22517 18.0648 8.89152 17.7322 8.59629 17.3608L6.433 17.6827L5.52021 15.479L7.27437 14.1792C7.21915 13.7057 7.21917 13.2325 7.27086 12.768L5.52021 11.4709L6.433 9.26717L8.57038 9.58522C8.86463 9.2095 9.20367 8.86507 9.58379 8.56094L9.26715 6.43303ZM13.4408 16.1266C14.9087 16.1266 16.0987 14.9367 16.0987 13.4688C16.0987 12.0009 14.9087 10.8109 13.4408 10.8109C11.9729 10.8109 10.783 12.0009 10.783 13.4688C10.783 14.9367 11.9729 16.1266 13.4408 16.1266Z" fill="white"/>
</svg>
