<svg width="23" height="23" viewBox="0 0 23 23" fill="none" xmlns="http://www.w3.org/2000/svg">
<path fill-rule="evenodd" clip-rule="evenodd" d="M11.5 21.6471C17.1041 21.6471 21.6471 17.1041 21.6471 11.5C21.6471 5.89593 17.1041 1.35294 11.5 1.35294C5.89593 1.35294 1.35294 5.89593 1.35294 11.5C1.35294 17.1041 5.89593 21.6471 11.5 21.6471ZM11.5 23C17.8513 23 23 17.8513 23 11.5C23 5.14873 17.8513 0 11.5 0C5.14873 0 0 5.14873 0 11.5C0 17.8513 5.14873 23 11.5 23Z" fill="white"/>
<path fill-rule="evenodd" clip-rule="evenodd" d="M9.44305 3.72059H13.5019V7.98496L17.1949 5.85278L19.2243 9.36782L15.5313 11.5L19.2243 13.6322L17.1949 17.1472L13.5019 15.015V19.2794H9.44305V15.0151L5.75 17.1472L3.72059 13.6322L7.41364 11.5L3.72059 9.36782L5.75 5.85277L9.44305 7.98495V3.72059ZM11.8234 6.14472C11.833 5.46924 11.8382 5.04052 11.8382 5.00588C11.8382 4.81908 11.6868 4.66765 11.5 4.66765C11.3132 4.66765 11.1618 4.81908 11.1618 5.00588C11.1618 5.01746 11.1623 5.07305 11.1635 5.16716C11.1651 5.30067 11.1678 5.5117 11.1716 5.78457C11.1798 5.78407 11.1878 5.78382 11.1956 5.78382C11.3566 5.78382 11.4634 5.83576 11.5471 5.90379C11.5833 5.93322 11.615 5.96556 11.642 5.99311L11.6485 5.99968C11.6613 6.01274 11.6732 6.0247 11.6847 6.03568C11.7 6.05028 11.7146 6.06318 11.73 6.07471L11.7601 6.09714C11.781 6.11269 11.8026 6.12875 11.8234 6.14472ZM11.8171 6.57465C11.8068 6.57782 11.7962 6.58044 11.7852 6.58261C11.7588 6.58783 11.7303 6.5905 11.7007 6.5922C11.6499 6.59513 11.5841 6.59559 11.5 6.59559C11.3656 6.59559 11.2611 6.58492 11.1829 6.57042C11.1969 7.51597 11.2175 8.79276 11.2434 10.1245L11.7676 9.54506C11.7883 8.42862 11.8051 7.38146 11.8171 6.57465ZM11.317 13.3776C11.2975 12.6566 11.2794 11.8765 11.2629 11.0925L11.7477 10.5792C11.7322 11.3504 11.715 12.1294 11.6964 12.8637C11.658 12.9263 11.5681 13.0638 11.4662 13.1912L11.317 13.3776ZM11.4268 16.3223C11.3962 15.8857 11.3672 15.1945 11.3404 14.3229C11.3434 14.3153 11.3465 14.3069 11.3499 14.298C11.3522 14.2918 11.3546 14.2852 11.3572 14.2785C11.3894 14.1918 11.4358 14.0671 11.5 14.0029C11.5522 13.9508 11.6128 13.8935 11.672 13.8391C11.6467 14.722 11.6192 15.4768 11.5902 16.0092C11.6554 15.8695 11.7029 15.7397 11.7029 15.6603V15.3221C11.7593 15.3559 11.8721 15.4641 11.8721 15.6265C11.8721 15.8011 11.6854 16.0659 11.5785 16.2096C11.5533 16.6129 11.527 16.8441 11.5 16.8441C11.4766 16.8441 11.4537 16.6828 11.4316 16.3879C11.4186 16.4012 11.4062 16.4137 11.3943 16.4256C11.3598 16.46 11.3304 16.4895 11.3085 16.5215C11.3427 16.4668 11.384 16.3979 11.4268 16.3223ZM11.2971 16.5397C11.3008 16.5338 11.3046 16.5278 11.3085 16.5215C11.3044 16.5275 11.3006 16.5335 11.2971 16.5397ZM12.5147 9.23382C12.5147 8.77382 12.0975 8.56863 11.9059 8.52353C11.9284 8.78284 11.9397 9.39618 11.8044 9.63971L11.1618 10.35L11.1566 10.3565C11.0197 10.5275 10.7559 10.8571 10.7559 11.3647C10.7559 11.8788 11.049 12.2554 11.1956 12.3794V11.9735C11.1843 11.9397 11.1618 11.7841 11.1618 11.4324C11.1618 11.0806 11.1618 11.0603 11.2632 10.925L11.9059 10.2824C12.1088 10.1245 12.5147 9.69382 12.5147 9.23382ZM11.8044 12.2779C11.9172 12.3343 12.1426 12.5282 12.1426 12.8529C12.1426 13.1437 11.9528 13.3748 11.816 13.5414L11.8157 13.5417C11.7998 13.561 11.7846 13.5795 11.7706 13.5971C11.5271 13.8406 11.3534 14.127 11.2971 14.2397C11.2745 14.2735 11.2294 14.4021 11.2294 14.6456C11.2294 14.8891 11.2745 14.9951 11.2971 15.0176V15.2882C11.2069 15.198 11.0265 14.8824 11.0265 14.3412C11.0265 13.7769 11.356 13.4244 11.5241 13.2445C11.5576 13.2087 11.5846 13.1798 11.6015 13.1574C11.7029 13.0221 11.8044 12.8529 11.8044 12.2779ZM11.6691 6.15588C11.6799 6.16399 11.6908 6.17204 11.7015 6.18001C11.7981 6.25184 11.8859 6.31715 11.8721 6.35882C11.8707 6.36293 11.8694 6.36691 11.8681 6.37077C11.8298 6.48679 11.8273 6.49412 11.5 6.49412C11.2294 6.49412 11.0941 6.44902 11.0603 6.42647C10.9588 6.44902 10.7559 6.62941 10.7559 7.17059C10.7559 7.71177 10.9814 8.11765 11.0941 8.25294L11.1279 8.89559C10.8123 8.63628 10.1809 7.87412 10.1809 7.17059C10.1809 6.29118 10.925 5.88529 11.1956 5.88529C11.3941 5.88529 11.4834 5.97628 11.5702 6.06483C11.6018 6.09699 11.6331 6.12884 11.6691 6.15588Z" fill="white"/>
</svg>
