<svg width="22" height="23" viewBox="0 0 22 23" fill="none" xmlns="http://www.w3.org/2000/svg">
<path fill-rule="evenodd" clip-rule="evenodd" d="M3.83069 21.5585L1.33333 18.9477V4.05233L3.87614 1.39394L18.1239 1.39394L20.6667 4.05233V18.9477L18.1256 21.6043L3.83069 21.5585ZM18.6761 23L3.27672 22.9507L0 19.5251V3.47494L3.32386 0L18.6761 7.52002e-07L22 3.47494V19.5251L18.6761 23Z" fill="white"/>
<path d="M5.79053 10.2455C5.79053 9.86053 6.15567 9.2 6.52386 9.2H7.99053C8.35872 9.2 8.72386 9.86053 8.72386 10.2455V17.4242C8.72386 17.5397 8.63432 17.6333 8.52386 17.6333H5.99053C5.88007 17.6333 5.79053 17.5397 5.79053 17.4242V10.2455Z" fill="white"/>
<path d="M6.32386 7.87576C6.32386 7.76028 6.4134 7.66667 6.52386 7.66667H7.99053C8.10099 7.66667 8.19053 7.76028 8.19053 7.87576V9.47879C8.19053 9.59427 8.10099 9.68788 7.99053 9.68788H6.52386C6.4134 9.68788 6.32386 9.59427 6.32386 9.47879V7.87576Z" fill="white"/>
<path d="M5.79053 18.0515C5.79053 17.936 5.88007 17.8424 5.99053 17.8424H8.52386C8.63432 17.8424 8.72386 17.936 8.72386 18.0515V18.1212C8.72386 18.2367 8.63432 18.3303 8.52386 18.3303H5.99053C5.88007 18.3303 5.79053 18.2367 5.79053 18.1212V18.0515Z" fill="white"/>
<path d="M6.19053 17.4939H8.32386V17.9818H6.19053V17.4939Z" fill="white"/>
<path d="M8.12386 9.47879C8.12386 12.2503 7.48508 14.497 7.19053 14.497C6.89598 14.497 6.39053 12.2503 6.39053 9.47879C6.39053 6.70732 6.89598 4.46061 7.19053 4.46061C7.48508 4.46061 8.12386 6.70732 8.12386 9.47879Z" fill="white"/>
<path d="M9.52386 10.2455C9.52386 9.86053 9.88901 9.2 10.2572 9.2H11.7239C12.0921 9.2 12.4572 9.86053 12.4572 10.2455V17.4242C12.4572 17.5397 12.3677 17.6333 12.2572 17.6333H9.72386C9.61341 17.6333 9.52386 17.5397 9.52386 17.4242V10.2455Z" fill="white"/>
<path d="M10.0572 7.87576C10.0572 7.76028 10.1467 7.66667 10.2572 7.66667H11.7239C11.8343 7.66667 11.9239 7.76028 11.9239 7.87576V9.47879C11.9239 9.59427 11.8343 9.68788 11.7239 9.68788H10.2572C10.1467 9.68788 10.0572 9.59427 10.0572 9.47879V7.87576Z" fill="white"/>
<path d="M9.52386 18.0515C9.52386 17.936 9.61341 17.8424 9.72386 17.8424H12.2572C12.3677 17.8424 12.4572 17.936 12.4572 18.0515V18.1212C12.4572 18.2367 12.3677 18.3303 12.2572 18.3303H9.72386C9.61341 18.3303 9.52386 18.2367 9.52386 18.1212V18.0515Z" fill="white"/>
<path d="M9.92386 17.4939H12.0572V17.9818H9.92386V17.4939Z" fill="white"/>
<path d="M11.8572 9.47879C11.8572 12.2503 11.2184 14.497 10.9239 14.497C10.6293 14.497 10.1239 12.2503 10.1239 9.47879C10.1239 6.70732 10.6293 4.46061 10.9239 4.46061C11.2184 4.46061 11.8572 6.70732 11.8572 9.47879Z" fill="white"/>
<path d="M13.2572 10.2455C13.2572 9.86053 13.6223 9.2 13.9905 9.2H15.4572C15.8254 9.2 16.1905 9.86053 16.1905 10.2455V17.4242C16.1905 17.5397 16.101 17.6333 15.9905 17.6333H13.4572C13.3467 17.6333 13.2572 17.5397 13.2572 17.4242V10.2455Z" fill="white"/>
<path d="M13.7905 7.87576C13.7905 7.76028 13.8801 7.66667 13.9905 7.66667H15.4572C15.5677 7.66667 15.6572 7.76028 15.6572 7.87576V9.47879C15.6572 9.59427 15.5677 9.68788 15.4572 9.68788H13.9905C13.8801 9.68788 13.7905 9.59427 13.7905 9.47879V7.87576Z" fill="white"/>
<path d="M13.2572 18.0515C13.2572 17.936 13.3467 17.8424 13.4572 17.8424H15.9905C16.101 17.8424 16.1905 17.936 16.1905 18.0515V18.1212C16.1905 18.2367 16.101 18.3303 15.9905 18.3303H13.4572C13.3467 18.3303 13.2572 18.2367 13.2572 18.1212V18.0515Z" fill="white"/>
<path d="M13.6572 17.4939H15.7905V17.9818H13.6572V17.4939Z" fill="white"/>
<path d="M15.5905 9.47879C15.5905 12.2503 14.9517 14.497 14.6572 14.497C14.3626 14.497 13.8572 12.2503 13.8572 9.47879C13.8572 6.70732 14.3626 4.46061 14.6572 4.46061C14.9517 4.46061 15.5905 6.70732 15.5905 9.47879Z" fill="white"/>
</svg>
