<svg width="24" height="24" viewBox="0 0 24 24" fill="none" xmlns="http://www.w3.org/2000/svg">
<path d="M19.1489 22.1007H3.95179C2.3194 22.1007 1 20.7813 1 19.1489V3.95179C1 2.3194 2.3194 1 3.95179 1H19.1537C20.7861 1 22.1055 2.3194 22.1055 3.95179V19.1537C22.1007 20.7813 20.7813 22.1007 19.1489 22.1007Z" stroke="white" stroke-width="2" stroke-miterlimit="10"/>
<path d="M9.60545 9.71095H5.58948C5.36316 9.71095 5.18018 9.52797 5.18018 9.30165V5.28567C5.18018 5.05935 5.36316 4.87637 5.58948 4.87637H9.60545C9.83177 4.87637 10.0148 5.05935 10.0148 5.28567V9.30165C10.0196 9.52797 9.83177 9.71095 9.60545 9.71095Z" fill="white"/>
<path d="M10.8859 15.6338L8.04489 18.4748C7.88598 18.6337 7.62596 18.6337 7.46705 18.4748L4.62601 15.6338C4.46711 15.4749 4.46711 15.2149 4.62601 15.0559L7.46705 12.2149C7.62596 12.056 7.88598 12.056 8.04489 12.2149L10.8859 15.0559C11.0496 15.2149 11.0496 15.4749 10.8859 15.6338Z" fill="white"/>
<path d="M15.3452 18.0318C16.8291 18.0318 18.0321 16.8288 18.0321 15.3448C18.0321 13.8609 16.8291 12.6579 15.3452 12.6579C13.8612 12.6579 12.6582 13.8609 12.6582 15.3448C12.6582 16.8288 13.8612 18.0318 15.3452 18.0318Z" fill="white"/>
<path d="M14.8112 4.78962L12.3072 9.12822C12.158 9.38825 12.3458 9.71088 12.6443 9.71088H17.6571C17.9556 9.71088 18.1434 9.38825 17.9941 9.12822L15.4902 4.78962C15.3361 4.5296 14.9605 4.5296 14.8112 4.78962Z" fill="white"/>
</svg>
