<svg width="25" height="22" viewBox="0 0 25 22" fill="none" xmlns="http://www.w3.org/2000/svg">
<path fill-rule="evenodd" clip-rule="evenodd" d="M13.8952 1.3273L11.1048 1.3273L1.5083 18.2172L2.90347 20.6727H22.0965L23.4917 18.2172L13.8952 1.3273ZM25 18.2172L14.6493 3.03795e-06L10.3507 0L0 18.2172L2.14932 22H22.8507L25 18.2172Z" fill="white"/>
<path fill-rule="evenodd" clip-rule="evenodd" d="M12.4347 12.1448C11.7133 12.1448 11.1285 12.739 11.1285 13.4721C11.1285 14.2051 11.7133 14.7994 12.4347 14.7994C13.1561 14.7994 13.7409 14.2051 13.7409 13.4721C13.7409 12.739 13.1561 12.1448 12.4347 12.1448ZM12.4347 11.1493C11.1722 11.1493 10.1488 12.1893 10.1488 13.4721C10.1488 14.7549 11.1722 15.7949 12.4347 15.7949C13.6971 15.7949 14.7206 14.7549 14.7206 13.4721C14.7206 12.1893 13.6971 11.1493 12.4347 11.1493Z" fill="white"/>
<path fill-rule="evenodd" clip-rule="evenodd" d="M12.4347 10.1538C10.6312 10.1538 9.16913 11.6395 9.16913 13.4721C9.16913 15.3047 10.6312 16.7903 12.4347 16.7903C14.2382 16.7903 15.7002 15.3047 15.7002 13.4721C15.7002 11.6395 14.2382 10.1538 12.4347 10.1538ZM12.4347 9.15837C10.0901 9.15837 8.18946 11.0897 8.18946 13.4721C8.18946 15.8545 10.0901 17.7858 12.4347 17.7858C14.7793 17.7858 16.6799 15.8545 16.6799 13.4721C16.6799 11.0897 14.7793 9.15837 12.4347 9.15837Z" fill="white"/>
<path fill-rule="evenodd" clip-rule="evenodd" d="M12.4347 8.16289C9.54906 8.16289 7.2098 10.5399 7.2098 13.4721C7.2098 16.4043 9.54906 18.7813 12.4347 18.7813C15.3203 18.7813 17.6596 16.4043 17.6596 13.4721C17.6596 10.5399 15.3203 8.16289 12.4347 8.16289ZM12.4347 7.16742C9.00801 7.16742 6.23013 9.99012 6.23013 13.4721C6.23013 16.9541 9.00801 19.7768 12.4347 19.7768C15.8614 19.7768 18.6392 16.9541 18.6392 13.4721C18.6392 9.99012 15.8614 7.16742 12.4347 7.16742Z" fill="white"/>
<path d="M12.0428 7.69834H12.8266V11.6139H12.0428V7.69834Z" fill="white"/>
<path d="M12.8266 19.2458H12.0428V15.3303H12.8266V19.2458Z" fill="white"/>
<path d="M6.75262 13.8703V13.0739H10.606V13.8703H6.75262Z" fill="white"/>
<path d="M18.1168 13.0739V13.8703H14.2634V13.0739H18.1168Z" fill="white"/>
</svg>
