<svg id="Layer_1" data-name="Layer 1" xmlns="http://www.w3.org/2000/svg" viewBox="0 0 24 24"><title>ps_arrow-right</title><path d="M14,22a1,1,0,0,1-1,1H11a1,1,0,0,1-1-1V17.41l2-2,2,2V22m1,0V17l-3-3L9,17v5a2,2,0,0,0,2,2h2a2,2,0,0,0,2-2Z" fill="#dadada"/><path d="M14,6.59l-2,2-2-2V2a1,1,0,0,1,1-1h2a1,1,0,0,1,1,1V6.59M15,7V2a2,2,0,0,0-2-2H11A2,2,0,0,0,9,2V7l3,3,3-3Z" fill="#dadada"/><path d="M8.59,12l-2,2H2a1,1,0,0,1-1-1V11a1,1,0,0,1,1-1H6.59l2,2M10,12,7,9H2a2,2,0,0,0-2,2v2a2,2,0,0,0,2,2H7l3-3Z" fill="#dadada"/><path d="M17,15h5a2,2,0,0,0,2-2V11a2,2,0,0,0-2-2H17l-3,3Z" fill="#dadada"/></svg>