<svg id="Layer_1" data-name="Layer 1" xmlns="http://www.w3.org/2000/svg" viewBox="0 0 24 24"><title>ps_arrow-left</title><path d="M10,2a1,1,0,0,1,1-1h2a1,1,0,0,1,1,1V6.59l-2,2-2-2V2M9,2V7l3,3,3-3V2a2,2,0,0,0-2-2H11A2,2,0,0,0,9,2Z" fill="#dadada"/><path d="M10,17.41l2-2,2,2V22a1,1,0,0,1-1,1H11a1,1,0,0,1-1-1V17.41M9,17v5a2,2,0,0,0,2,2h2a2,2,0,0,0,2-2V17l-3-3L9,17Z" fill="#dadada"/><path d="M15.41,12l2-2H22a1,1,0,0,1,1,1v2a1,1,0,0,1-1,1H17.41l-2-2M14,12l3,3h5a2,2,0,0,0,2-2V11a2,2,0,0,0-2-2H17l-3,3Z" fill="#dadada"/><path d="M7,9H2a2,2,0,0,0-2,2v2a2,2,0,0,0,2,2H7l3-3Z" fill="#dadada"/></svg>