<svg id="Layer_1" data-name="Layer 1" xmlns="http://www.w3.org/2000/svg" viewBox="0 0 24 24"><title>ps_arrow-top</title><path d="M22,10a1,1,0,0,1,1,1v2a1,1,0,0,1-1,1H17.41l-2-2,2-2H22m0-1H17l-3,3,3,3h5a2,2,0,0,0,2-2V11a2,2,0,0,0-2-2Z" fill="#dadada"/><path d="M6.59,10l2,2-2,2H2a1,1,0,0,1-1-1V11a1,1,0,0,1,1-1H6.59M7,9H2a2,2,0,0,0-2,2v2a2,2,0,0,0,2,2H7l3-3L7,9Z" fill="#dadada"/><path d="M12,15.41l2,2V22a1,1,0,0,1-1,1H11a1,1,0,0,1-1-1V17.41l2-2M12,14,9,17v5a2,2,0,0,0,2,2h2a2,2,0,0,0,2-2V17l-3-3Z" fill="#dadada"/><path d="M15,7V2a2,2,0,0,0-2-2H11A2,2,0,0,0,9,2V7l3,3Z" fill="#dadada"/></svg>