<svg id="Layer_1" data-name="Layer 1" xmlns="http://www.w3.org/2000/svg" viewBox="0 0 20 22"><title>ps_l2</title><path d="M18.4,1H5.74C3.89,1,3.07,2.23,3.55,4.25,3.83,5.46,4,5.91,4,11.5c0,5.07-.76,6-1.39,7.64C2.27,20,.71,23,4.5,23h6.7C16.31,23,22,15.71,22,9,22,4.21,20.05,1,18.4,1Zm-7,15H6.53V8.11H8.2v6.51h3.18Zm6.09,0H12.2V14.84l1.85-2,.63-.7a6.3,6.3,0,0,0,.49-.62,3,3,0,0,0,.32-.61,1.85,1.85,0,0,0,.11-.67.8.8,0,0,0-.24-.62.89.89,0,0,0-.64-.22,1.75,1.75,0,0,0-.82.21,4,4,0,0,0-.82.6l-.9-1.07c.16-.15.33-.29.5-.42a4.74,4.74,0,0,1,.58-.36,3.39,3.39,0,0,1,.7-.25A2.82,2.82,0,0,1,14.81,8a2.89,2.89,0,0,1,1,.16,2.12,2.12,0,0,1,.77.45,2,2,0,0,1,.49.7,2.56,2.56,0,0,1,0,1.81,3.92,3.92,0,0,1-.44.83,7.69,7.69,0,0,1-.65.81c-.25.27-.51.54-.79.82l-1,.95v.08h3.2V16Z" transform="translate(-2 -1)" fill="#dadada"/></svg>