<svg id="Layer_1" data-name="Layer 1" xmlns="http://www.w3.org/2000/svg" viewBox="0 0 24 21"><title>ps_options</title><path d="M12,21h0a3,3,0,0,1-3-3V10a3,3,0,0,1,3-3h0a3,3,0,0,1,3,3v8A3,3,0,0,1,12,21Z" fill="#dadada"/><path d="M2,0c1.22,0,2,1.07,2,2.5S3.17,5,2,5,0,3.94,0,2.5.73,0,2,0ZM2,.86c-.64,0-1,.7-1,1.64s.34,1.64,1,1.64S3,3.42,3,2.5,2.59.86,2,.86Z" fill="#dadada"/><path d="M4.32.08H6A1.41,1.41,0,0,1,7.48,1.62,1.41,1.41,0,0,1,6,3.16H5.26V4.91H4.32ZM5.94.93H5.26V2.32h.67c.36,0,.59-.28.59-.7A.6.6,0,0,0,5.94.93Z" fill="#dadada"/><path d="M8.81.93h-1V.08h3V.93h-1v4H8.81Z" fill="#dadada"/><path d="M11.29.08h.94V4.91h-.94Z" fill="#dadada"/><path d="M14.64,0c1.23,0,1.95,1.07,1.95,2.5S15.86,5,14.64,5s-2-1.06-2-2.5S13.42,0,14.64,0Zm0,.86c-.64,0-1,.7-1,1.64s.34,1.64,1,1.64,1-.72,1-1.64S15.28.86,14.64.86Z" fill="#dadada"/><path d="M18,1.83V4.91h-.93V.08h1l1.53,3v-3h.94V4.91h-.9Z" fill="#dadada"/><path d="M21.28,3.63a1.5,1.5,0,0,0,1.12.51c.42,0,.64-.24.64-.54s-.34-.53-.76-.72C21.69,2.64,21,2.35,21,1.39A1.41,1.41,0,0,1,22.5,0a2,2,0,0,1,1.42.54l-.45.73a1.39,1.39,0,0,0-1-.41.49.49,0,0,0-.56.49c0,.33.32.48.74.66.6.24,1.34.56,1.34,1.52A1.42,1.42,0,0,1,22.42,5a2.13,2.13,0,0,1-1.6-.62Z" fill="#dadada"/></svg>