<svg id="Layer_1" data-name="Layer 1" xmlns="http://www.w3.org/2000/svg" viewBox="0 0 20 22"><title>ps_r2</title><path d="M8.18,9.48h-.5v2.13h.54a2.11,2.11,0,0,0,1.17-.26,1,1,0,0,0,.38-.83.88.88,0,0,0-.38-.8A2.44,2.44,0,0,0,8.18,9.48Z" transform="translate(-2 -1)" fill="#dadada"/><path d="M21.41,19.14C20.78,17.53,20,16.56,20,11.5c0-5.59.15-6,.43-7.25.48-2-.34-3.25-2.19-3.25H5.6C4,1,2,4.21,2,9c0,6.71,5.69,14,10.8,14h6.7C23.29,23,21.73,20,21.41,19.14ZM10.43,16,8.55,13H7.67v3H6V8.11H8.3a3.9,3.9,0,0,1,2.37.59,2.1,2.1,0,0,1,.77,1.78,2.14,2.14,0,0,1-.38,1.24,2.45,2.45,0,0,1-1.08.85L12.28,16ZM18,16H12.72V14.84l1.85-2,.63-.7a6.3,6.3,0,0,0,.49-.62,3,3,0,0,0,.32-.61,1.85,1.85,0,0,0,.11-.67.8.8,0,0,0-.24-.62.89.89,0,0,0-.64-.22,1.75,1.75,0,0,0-.82.21,4,4,0,0,0-.82.6l-.9-1.07c.16-.15.33-.29.5-.42a4.74,4.74,0,0,1,.58-.36,3.39,3.39,0,0,1,.7-.25,3.33,3.33,0,0,1,1.87.05,2.12,2.12,0,0,1,.77.45,2,2,0,0,1,.49.7,2.56,2.56,0,0,1,0,1.81,3.92,3.92,0,0,1-.44.83,7.69,7.69,0,0,1-.65.81c-.25.27-.51.54-.79.82l-1,.95v.08H18Z" transform="translate(-2 -1)" fill="#dadada"/></svg>