<svg id="Layer_1" data-name="Layer 1" xmlns="http://www.w3.org/2000/svg" viewBox="0 0 24 24"><title>ps_r-hor</title><path d="M23.81,14.11l-1.65,1.38-2.43,2a9.48,9.48,0,0,1-15.46,0l-2.43-2L.19,14.11a12,12,0,0,0,23.62,0Z" fill="#dadada"/><path d="M2.8,14.33a9.16,9.16,0,0,1-.22-1.14.06.06,0,0,1,0,0,2.06,2.06,0,0,1,0-.26,2.83,2.83,0,0,1,0-.29c0-.08,0-.18,0-.26V12c0-.11,0-.23,0-.34s0-.18,0-.26a2.64,2.64,0,0,1,0-.29,2.06,2.06,0,0,1,0-.26.08.08,0,0,1,0,0,10.44,10.44,0,0,1,.22-1.14h0L0,12l2.79,2.33Z" fill="#dadada"/><path d="M24,12,21.21,9.67h0a9.16,9.16,0,0,1,.22,1.14v0a1.09,1.09,0,0,1,0,.26l0,.29c0,.08,0,.18,0,.26s0,.23,0,.34,0,.23,0,.34a2.26,2.26,0,0,0,0,.26l0,.29,0,.26v0a10.44,10.44,0,0,1-.22,1.14h0Z" fill="#dadada"/><path d="M4.27,6.49a9.48,9.48,0,0,1,15.46,0l2.43,2,1.65,1.38a12,12,0,0,0-23.62,0L1.84,8.51Z" fill="#dadada"/><path d="M11.42,9.06h-.56v2.43h.6a2.25,2.25,0,0,0,1.3-.3,1.09,1.09,0,0,0,.42-.95,1,1,0,0,0-.43-.91A2.57,2.57,0,0,0,11.42,9.06Z" fill="#dadada"/><path d="M12,4a8,8,0,1,0,8,8A8,8,0,0,0,12,4Zm1.94,12.5-2.09-3.45h-1V16.5H9v-9h2.55a4.24,4.24,0,0,1,2.64.67,2.42,2.42,0,0,1,.86,2,2.38,2.38,0,0,1-.43,1.41,2.84,2.84,0,0,1-1.2,1L16,16.5Z" fill="#dadada"/></svg>