<svg id="Layer_1" data-name="Layer 1" xmlns="http://www.w3.org/2000/svg" viewBox="0 0 24 22"><title>ps_r-press</title><polygon points="17 0 7 0 12 6 17 0" fill="#dadada"/><path d="M21,9H3a3,3,0,0,0,0,6H5v8H19V15h2a3,3,0,0,0,0-6ZM13.29,20l-1.88-3.07h-.89V20H8.86V12h2.29a3.9,3.9,0,0,1,2.37.59,2.14,2.14,0,0,1,.77,1.8,2.2,2.2,0,0,1-.38,1.26,2.47,2.47,0,0,1-1.08.86L15.14,20Z" transform="translate(0 -1)" fill="#dadada"/><path d="M11,13.39h-.5v2.16h.54a2,2,0,0,0,1.17-.27,1,1,0,0,0,.38-.84.89.89,0,0,0-.38-.81A2.41,2.41,0,0,0,11,13.39Z" transform="translate(0 -1)" fill="#dadada"/></svg>