<svg id="Layer_1" data-name="Layer 1" xmlns="http://www.w3.org/2000/svg" viewBox="0 0 24 18"><title>ps_r1</title><path d="M23.15,9.76a2.33,2.33,0,0,0-.91-1.66C20.19,6.61,12.12,3,7,3,4.55,3,0,8.57,0,10.86a66.63,66.63,0,0,0,1.54,8.59A2,2,0,0,0,3.46,21H22a2.19,2.19,0,0,0,2-2.51ZM11.08,17l-1.9-3.07h-.9V17H6.59V9H8.91a4,4,0,0,1,2.4.59,2.13,2.13,0,0,1,.78,1.8,2.14,2.14,0,0,1-.39,1.26,2.56,2.56,0,0,1-1.09.86L13,17Zm6.33,0H15.73V12c0-.13,0-.27,0-.42s0-.29,0-.43,0-.28,0-.4l-.09.1-.15.14-.17.16-.17.15-.92.74-.82-1L16,9H17.4v8Z" transform="translate(0 -3)" fill="#dadada"/><path d="M8.79,10.39H8.28v2.16h.54A2.06,2.06,0,0,0,10,12.28a1,1,0,0,0,.38-.84.88.88,0,0,0-.39-.81A2.3,2.3,0,0,0,8.79,10.39Z" transform="translate(0 -3)" fill="#dadada"/></svg>