<svg id="Layer_1" data-name="Layer 1" xmlns="http://www.w3.org/2000/svg" viewBox="0 0 17.94 21"><title>ps_share</title><path d="M12,21h0a3,3,0,0,1-3-3V10a3,3,0,0,1,3-3h0a3,3,0,0,1,3,3v8A3,3,0,0,1,12,21Z" transform="translate(-3.03)" fill="#dadada"/><path d="M3.49,3.63a1.5,1.5,0,0,0,1.12.51c.42,0,.64-.24.64-.54s-.34-.53-.76-.72c-.58-.23-1.32-.52-1.32-1.47A1.42,1.42,0,0,1,4.71,0,2,2,0,0,1,6.13.54l-.45.72a1.44,1.44,0,0,0-1-.41.49.49,0,0,0-.56.49c0,.33.32.48.74.66.6.25,1.34.57,1.34,1.52A1.43,1.43,0,0,1,4.63,5,2.13,2.13,0,0,1,3,4.38Z" transform="translate(-3.03)" fill="#dadada"/><path d="M9.18,2.85H7.63V4.91H6.69V.08h.94V2H9.18V.08h1V4.91h-1Z" transform="translate(-3.03)" fill="#dadada"/><path d="M13.14,4.05H11.61l-.22.86h-1L11.81.08h1.13l1.39,4.83h-1ZM11.8,3.2H13L12.38.94Z" transform="translate(-3.03)" fill="#dadada"/><path d="M16.05,3.16h-.5V4.91h-.94V.08h1.74a1.41,1.41,0,0,1,1.42,1.53A1.34,1.34,0,0,1,17,3l.85,1.92h-1ZM16.22.93h-.67V2.32h.67a.62.62,0,0,0,.6-.7A.61.61,0,0,0,16.22.93Z" transform="translate(-3.03)" fill="#dadada"/><path d="M18.29.08H21V.93H19.23V2h1.69v.84H19.23V4.07H21v.85H18.29Z" transform="translate(-3.03)" fill="#dadada"/></svg>