<svg id="Layer_1" data-name="Layer 1" xmlns="http://www.w3.org/2000/svg" viewBox="0 0 24 24"><title>x_b</title><path d="M11.74,12.64H10.5v2.61h1.3A1.81,1.81,0,0,0,13,14.91a1.28,1.28,0,0,0,.39-1C13.42,13.06,12.86,12.64,11.74,12.64Z" fill="#dadada"/><path d="M12.84,10.69a1,1,0,0,0,.36-.88A.88.88,0,0,0,12.8,9a2.38,2.38,0,0,0-1.26-.25h-1V11h1.16A2,2,0,0,0,12.84,10.69Z" fill="#dadada"/><path d="M12,0A12,12,0,1,0,24,12,12,12,0,0,0,12,0Zm2.57,16.23A3.91,3.91,0,0,1,12,17H8.5V7h2.94a5.36,5.36,0,0,1,2.92.61,2.16,2.16,0,0,1,.91,1.93,2.48,2.48,0,0,1-.4,1.47,1.59,1.59,0,0,1-1.06.69v.07a2.05,2.05,0,0,1,1.29.79,2.74,2.74,0,0,1,.4,1.55A2.6,2.6,0,0,1,14.57,16.23Z" fill="#dadada"/></svg>