<svg id="Layer_1" data-name="Layer 1" xmlns="http://www.w3.org/2000/svg" viewBox="0 0 24 18"><title>x_lb</title><path d="M15.8,12a.81.81,0,0,0,.3-.71.7.7,0,0,0-.33-.66,2.12,2.12,0,0,0-1-.2h-.87v1.78h1A1.6,1.6,0,0,0,15.8,12Z" transform="translate(0 -3)" fill="#dadada"/><path d="M14.88,13.51h-1V15.6h1.08a1.56,1.56,0,0,0,1-.27,1,1,0,0,0,.33-.82C16.28,13.85,15.81,13.51,14.88,13.51Z" transform="translate(0 -3)" fill="#dadada"/><path d="M17,3C11.88,3,3.81,6.61,1.76,8.1A2.33,2.33,0,0,0,.85,9.76L0,18.5A2.18,2.18,0,0,0,2,21H20.54a2,2,0,0,0,1.92-1.54A66.63,66.63,0,0,0,24,10.87C24,8.57,19.45,3,17,3ZM10.84,17H6V9H7.66v6.6h3.17V17Zm6.39-.61a3.31,3.31,0,0,1-2.11.61H12.2V9h2.44a4.65,4.65,0,0,1,2.42.48A1.7,1.7,0,0,1,17.81,11a2,2,0,0,1-.33,1.18,1.29,1.29,0,0,1-.88.55v.05a1.68,1.68,0,0,1,1.07.63A2.09,2.09,0,0,1,18,14.67,2.08,2.08,0,0,1,17.23,16.39Z" transform="translate(0 -3)" fill="#dadada"/></svg>