<svg id="Layer_1" data-name="Layer 1" xmlns="http://www.w3.org/2000/svg" viewBox="0 0 24 24"><title>x_r-ver</title><path d="M9.89,23.81,8.51,22.16l-2-2.43a9.48,9.48,0,0,1,0-15.46l2-2.43L9.89.19a12,12,0,0,0,0,23.62Z" fill="#dadada"/><path d="M9.67,2.8a9.16,9.16,0,0,1,1.14-.22h0a2.06,2.06,0,0,1,.26,0l.29,0,.26,0h.68l.26,0,.29,0a2.06,2.06,0,0,1,.26,0h0a10.44,10.44,0,0,1,1.14.22h0L12,0,9.67,2.79Z" fill="#dadada"/><path d="M12,24l2.33-2.79h0a9.16,9.16,0,0,1-1.14.22h0a1.09,1.09,0,0,1-.26,0l-.29,0H11.4l-.29,0-.26,0h0a10.44,10.44,0,0,1-1.14-.22h0Z" fill="#dadada"/><path d="M17.51,4.27a9.48,9.48,0,0,1,0,15.46l-2,2.43-1.38,1.65a12,12,0,0,0,0-23.62l1.38,1.65Z" fill="#dadada"/><path d="M11.42,9.06h-.56v2.43h.6a2.25,2.25,0,0,0,1.3-.3,1.09,1.09,0,0,0,.42-.95,1,1,0,0,0-.43-.91A2.57,2.57,0,0,0,11.42,9.06Z" fill="#dadada"/><path d="M12,4a8,8,0,1,0,8,8A8,8,0,0,0,12,4Zm1.94,12.5-2.09-3.45h-1V16.5H9v-9h2.55a4.24,4.24,0,0,1,2.64.67,2.42,2.42,0,0,1,.86,2,2.38,2.38,0,0,1-.43,1.41,2.84,2.84,0,0,1-1.2,1L16,16.5Z" fill="#dadada"/></svg>