<svg id="Layer_1" data-name="Layer 1" xmlns="http://www.w3.org/2000/svg" viewBox="0 0 24 18"><title>x_rb</title><path d="M16.3,12a.81.81,0,0,0,.3-.71.7.7,0,0,0-.33-.66,2.09,2.09,0,0,0-1-.2h-.87v1.78h1A1.59,1.59,0,0,0,16.3,12Z" transform="translate(0 -3)" fill="#dadada"/><path d="M15.39,13.51h-1V15.6h1.08a1.56,1.56,0,0,0,1-.27,1,1,0,0,0,.33-.82C16.78,13.85,16.32,13.51,15.39,13.51Z" transform="translate(0 -3)" fill="#dadada"/><path d="M23.15,9.76a2.33,2.33,0,0,0-.91-1.66C20.19,6.61,12.12,3,7,3,4.55,3,0,8.57,0,10.86a66.63,66.63,0,0,0,1.54,8.59A2,2,0,0,0,3.46,21H22a2.19,2.19,0,0,0,2-2.51ZM9.9,17,8,13.93H7.15V17H5.5V9H7.77a3.85,3.85,0,0,1,2.35.59,2.13,2.13,0,0,1,.76,1.8,2.2,2.2,0,0,1-.38,1.26,2.5,2.5,0,0,1-1.07.86L11.73,17Zm7.83-.61a3.28,3.28,0,0,1-2.1.61H12.71V9h2.43a4.61,4.61,0,0,1,2.41.48A1.7,1.7,0,0,1,18.3,11,2,2,0,0,1,18,12.2a1.29,1.29,0,0,1-.87.55v.05a1.71,1.71,0,0,1,1.07.63,2.09,2.09,0,0,1,.33,1.24A2.08,2.08,0,0,1,17.73,16.39Z" transform="translate(0 -3)" fill="#dadada"/><path d="M7.66,10.39h-.5v2.16h.53a2,2,0,0,0,1.16-.27,1,1,0,0,0,.37-.84.89.89,0,0,0-.38-.81A2.29,2.29,0,0,0,7.66,10.39Z" transform="translate(0 -3)" fill="#dadada"/></svg>