<svg id="Layer_1" data-name="Layer 1" xmlns="http://www.w3.org/2000/svg" viewBox="0 0 20 22"><title>x_rt</title><path d="M8,9.39h-.5v2.16H8a2,2,0,0,0,1.17-.27,1,1,0,0,0,.38-.84.89.89,0,0,0-.38-.81A2.44,2.44,0,0,0,8,9.39Z" transform="translate(-2 -1)" fill="#dadada"/><path d="M21.41,19.14C20.78,17.53,20,16.56,20,11.5c0-5.59.15-6,.43-7.25.48-2-.34-3.25-2.19-3.25H5.6C4,1,2,4.21,2,9c0,6.71,5.69,14,10.8,14h6.7C23.29,23,21.73,20,21.41,19.14ZM10.21,16,8.33,12.93H7.45V16H5.79V8H8.08a3.9,3.9,0,0,1,2.37.59,2.14,2.14,0,0,1,.77,1.8,2.2,2.2,0,0,1-.38,1.26,2.47,2.47,0,0,1-1.08.86L12.06,16Zm8-6.59H16.08V16H14.41V9.41H12.28V8h5.93Z" transform="translate(-2 -1)" fill="#dadada"/></svg>