<svg id="Layer_1" data-name="Layer 1" xmlns="http://www.w3.org/2000/svg" viewBox="0 0 32 32"><title>mailbox_random_bp</title><path d="M16,0A16,16,0,1,0,32,16,16,16,0,0,0,16,0Zm0,30A14,14,0,1,1,30,16,14,14,0,0,1,16,30Z" fill="#cfa90a" fill-rule="evenodd"/><polygon points="19.49 14.29 22.62 11.16 24.02 6.99 19.84 8.38 16.71 11.51 19.49 14.29" fill="#cfa90a" fill-rule="evenodd"/><path d="M12.87,20.91l2.42-2.42-1.23-1.23L11.9,19.81l-.71-.71,2.55-2.16-1.23-1.23-2.42,2.42L8,16v1.39L9.57,20l-.87.87A3.15,3.15,0,0,0,7.92,22a1,1,0,0,0-.62.27,1,1,0,0,0,1.4,1.4A1,1,0,0,0,9,23.08a3.15,3.15,0,0,0,1.12-.78l.87-.87L13.57,23H15Z" fill="#cfa90a" fill-rule="evenodd"/><path d="M21.91,18.13l-6.27-6.27L12.16,8.38,8,7l1.4,4.18,3.48,3.48,6.27,6.27L17,23h1.39L21,21.43l.87.87a3.15,3.15,0,0,0,1.12.78,1,1,0,0,0,.27.62,1,1,0,0,0,1.4-1.4,1,1,0,0,0-.62-.27,3.15,3.15,0,0,0-.78-1.12L22.43,20,24,17.43V16ZM20.1,19.81l-3.89-4.6,4.6,3.89Z" fill="#cfa90a" fill-rule="evenodd"/></svg>