<svg id="Layer_1" data-name="Layer 1" xmlns="http://www.w3.org/2000/svg" viewBox="0 0 32 32"><defs><style>.cls-1{fill:#cfa90a;}</style></defs><title>mailbox_personal_offers1</title><path class="cls-1" d="M18.88,18.2l-.63.6v2.4l.63.6h1.25l.62-.6V18.8l-.62-.6Zm-5.75-4.4.62-.6V10.8l-.62-.6H11.88l-.63.6v2.4l.63.6Zm18.53,1.68L29,14.26l2.28-1.88a.57.57,0,0,0,.07-.8.52.52,0,0,0-.34-.2l-2.91-.46,1.72-2.35a.6.6,0,0,0,0-.63.61.61,0,0,0-.56-.28L26.38,8l1.06-2.7a.57.57,0,0,0-.32-.74.61.61,0,0,0-.42,0L24,5.62l.34-2.88a.57.57,0,0,0-.52-.63.54.54,0,0,0-.39.1L21.09,3.93,20.63,1A.58.58,0,0,0,20,.53a.66.66,0,0,0-.34.2L17.74,3,16.52.34a.57.57,0,0,0-1,0L14.26,3,12.38.75a.57.57,0,0,0-.8-.07.52.52,0,0,0-.2.34l-.46,2.91L8.56,2.21a.59.59,0,0,0-.81.14.6.6,0,0,0-.1.39L8,5.62,5.3,4.56a.57.57,0,0,0-.74.32.61.61,0,0,0,0,.42L5.62,8,2.74,7.65a.61.61,0,0,0-.56.28.6.6,0,0,0,0,.63L3.9,10.91,1,11.37A.58.58,0,0,0,.53,12a.66.66,0,0,0,.2.34L3,14.26.34,15.48a.57.57,0,0,0,0,1L3,17.74.75,19.62a.57.57,0,0,0-.07.8.52.52,0,0,0,.34.2l2.91.46L2.21,23.44a.59.59,0,0,0,.14.81.6.6,0,0,0,.39.1L5.62,24,4.56,26.7a.57.57,0,0,0,.32.74.61.61,0,0,0,.42,0L8,26.39l-.34,2.87a.61.61,0,0,0,.28.56.6.6,0,0,0,.63,0l2.35-1.72.45,2.9a.58.58,0,0,0,.66.47.66.66,0,0,0,.34-.2L14.26,29l1.22,2.69a.57.57,0,0,0,1,0L17.74,29l1.88,2.28a.57.57,0,0,0,.8.07.52.52,0,0,0,.2-.34l.46-2.91,2.35,1.72a.6.6,0,0,0,.63,0,.61.61,0,0,0,.28-.56L24,26.39l2.69,1.05a.57.57,0,0,0,.74-.32.61.61,0,0,0,0-.42L26.38,24l2.88.34a.57.57,0,0,0,.63-.52.54.54,0,0,0-.1-.39l-1.72-2.35L31,20.63a.58.58,0,0,0,.47-.66.66.66,0,0,0-.2-.34L29,17.74l2.69-1.22a.57.57,0,0,0,0-1ZM16,28A12,12,0,1,1,28,16,12,12,0,0,1,16,28ZM16,6A10,10,0,1,0,26,16,10,10,0,0,0,16,6Zm-6,4.2L11.25,9h2.5L15,10.2v3.6L13.75,15h-2.5L10,13.8ZM22,21.8,20.75,23h-2.5L17,21.8V18.2L18.25,17h2.5L22,18.2ZM11.2,22H10V20.7L20.8,10H22v1.29Z"/></svg>