<svg id="Layer_1" data-name="Layer 1" xmlns="http://www.w3.org/2000/svg" viewBox="0 0 32 32"><defs><style>.cls-1{fill:#63b753;}</style></defs><title>mailbox_contract_success2</title><path class="cls-1" d="M22.52,9.46l-3.16,1.87-.88-1,4-1L16.68,6,7,8.57,11.74,26,26,22.23Zm-1,3.1.3,1.13L19,14.44l-.3-1.12Zm-8.75-.7-.33.09-.3-.17L12,11.12l.17-.3.34-.08ZM9.17,9.8,12,9.05l.15.56-.57.15-.83,1.43.3,1.12,1.45.83.57-.15.3,1.12L13,14.2,12.7,14l-.09-.33-1.14.3.15.56,1.45.83.57-.15.15.56L15,15.5l-.15-.57.57-.15.83-1.42L16,12.23l-1.45-.82-.57.15-.3-1.13.33-.08.3.17.09.33,1.14-.31L15.33,10l-1.45-.82-.57.15-.15-.56L16,8l1.83,6.75L11,16.55Zm5.06,2.88.57-.15.24.9-.17.29-.34.09ZM11.61,18.8l-.3-1.12,10.83-2.87.31,1.13Zm.31,1.13,10.83-2.87.31,1.13L12.22,21.05Zm.91,3.37-.3-1.12,6.84-1.81.31,1.12ZM16,0A16,16,0,1,0,32,16,16,16,0,0,0,16,0Zm0,30A14,14,0,1,1,30,16,14,14,0,0,1,16,30Z"/></svg>