<svg id="Layer_1" data-name="Layer 1" xmlns="http://www.w3.org/2000/svg" viewBox="0 0 32 32"><defs><style>.cls-1{fill:#cfa90a;}</style></defs><title>mailbox_money_received1</title><path class="cls-1" d="M20,13a6,6,0,1,0-6,6A6,6,0,0,0,20,13Zm-7.52,3.32L11,15v-.66h1.5v.39l.31.27h.44V13.66H12.5L11,12.33V11l1.5-1.33h.75V9h1.5v.66h.75L17,11v.67H15.5v-.39L15.18,11h-.44v1.33h.75L17,13.66V15l-1.5,1.33h-.75V17h-1.5v-.67Zm3-1.6V13.66h-.75V15h.44ZM13.24,11H12.8l-.31.28v.78l.31.27h.44ZM16,0A16,16,0,1,0,32,16,16,16,0,0,0,16,0Zm0,30A14,14,0,1,1,30,16,14,14,0,0,1,16,30Zm4.72-19A7,7,0,0,1,16,19.71a6.88,6.88,0,0,1-1.68.29,5.52,5.52,0,0,0,6.38-9ZM17.5,22a6.45,6.45,0,0,1-4.78-2.12l-.57-.13A5.49,5.49,0,0,0,23,19,6.45,6.45,0,0,1,17.5,22Z"/></svg>