<svg id="Layer_1" data-name="Layer 1" xmlns="http://www.w3.org/2000/svg" viewBox="0 0 24 24"><defs><style>.cls-1{opacity:0.4;isolation:isolate;}.cls-2{fill:#75c3f2;}.cls-3{opacity:0.8;}</style></defs><title>boosters2</title><polygon class="cls-1" points="0.08 12.49 7.58 5 2.59 0 24 0 24 21.41 19 16.42 11.51 23.92 0.08 12.49"/><polygon class="cls-2" points="23 1 5 1 8.99 5 1.5 12.49 11.51 22.5 19 15.01 23 19 23 1"/><polygon class="cls-3" points="9.73 7.5 8.78 8.45 13.25 12.92 13.44 15.48 10.88 15.29 6.41 10.82 5.47 11.77 10.2 16.5 13.76 16.74 14.7 15.79 14.46 12.23 9.73 7.5"/><path class="cls-3" d="M18.47,7.27V5.38L16.12,3H14.21L10.9,6.33,17.53,13l.95-.94L16.1,9.64ZM12.8,6.34l1.89-1.9h1l1.41,1.42v.95L15.17,8.7Z"/></svg>