<svg id="Layer_1" data-name="Layer 1" xmlns="http://www.w3.org/2000/svg" viewBox="0 0 24 24"><defs><style>.cls-1{opacity:0.4;isolation:isolate;}.cls-2{fill:#eec031;}.cls-3{opacity:0.8;}</style></defs><title>boosters2</title><polygon class="cls-1" points="0.08 12.49 7.58 5 2.59 0 24 0 24 21.41 19 16.42 11.51 23.92 0.08 12.49"/><polygon class="cls-2" points="23 1 5 1 8.99 5 1.5 12.49 11.51 22.5 19 15.01 23 19 23 1"/><path class="cls-3" d="M9.92,14l-5.4-1.26L5.6,11.63l4,.93-.92-4L9.73,7.5,11,12.88l5.36,1.25-1.09,1.1-3.93-.92.92,3.92-1.1,1.11Z"/><path class="cls-3" d="M10.9,6.33,14.21,3h1.91l2.36,2.36V7.27L16.1,9.64,18.48,12l-.95.94Zm1.9,0L15.17,8.7l1.89-1.89V5.86L15.64,4.44h-1Z"/></svg>