<svg id="Layer_1" data-name="Layer 1" xmlns="http://www.w3.org/2000/svg" viewBox="0 0 24 24"><defs><style>.cls-1{opacity:0.4;isolation:isolate;}.cls-2{fill:#96ef7b;}.cls-3{opacity:0.8;}</style></defs><title>boosters2</title><polygon class="cls-1" points="0.08 12.49 7.58 5 2.59 0 24 0 24 21.41 19 16.42 11.51 23.92 0.08 12.49"/><polygon class="cls-2" points="23 1 5 1 8.99 5 1.5 12.49 11.51 22.5 19 15.01 23 19 23 1"/><path class="cls-3" d="M14.05,13.92h.8l1.63-1.63v-.79l-1.14-1.14h-.8l-2,2H10.57L8.63,10.43V8.48h0l.71-.71-.49-.49,1-1,.49.49.72-.73H13l1,1L13,8l-.57-.57h-.81L10,9.08v.79L11.12,11H12l2-2H15.9l1.94,1.94v2h0l-.71.71.49.48-1,1-.49-.48-.72.73H13.48l-1-1,1-1Z"/></svg>