<svg id="Layer_1" data-name="Layer 1" xmlns="http://www.w3.org/2000/svg" viewBox="0 0 23 23.58"><title>Coin_icon</title><polygon points="0 12.63 0 4.7 6.17 0 11.5 3.04 16.83 0 23 4.7 23 12.63 11.5 23.58 0 12.63" opacity="0.4" style="isolation:isolate"/><path d="M17.75,1.62l-5.25,3-5.25-3L2,5.62v7l10.5,10,10.5-10v-7ZM17,12H13v1h3.4L16,14H13v1h2.6l-.4,1H13v1h1.8l-.4,1H13v1h1l-.4,1H13v1H12V20h-.6L11,19h1V18H10.6l-.4-1H12V16H9.8l-.4-1H12V14H9l-.4-1H12V12H8L3,7H9.21A3.85,3.85,0,0,0,12,10V7h1V10A3.85,3.85,0,0,0,15.79,7H22Z" transform="translate(-1 -0.42)" fill="#fff"/></svg>