<svg id="Layer_1" data-name="Layer 1" xmlns="http://www.w3.org/2000/svg" viewBox="0 0 128 51"><defs><style>.cls-1{opacity:0.05;}.cls-2{fill:#dadada;}</style></defs><title>gear</title><g class="cls-1"><path class="cls-2" d="M0,25V43.63c.94-.43,1.87-.89,2.77-1.39l3.58,1.92H6.4l11.41,6a1.24,1.24,0,0,0,.43.26l.85.48,1.07-1.06,9.76-9.76,1-1-.37-.69-.32-.64L24.16,26.35l-1.92-3.63a45.87,45.87,0,0,0,3.89-9.44l3.79-1v-.06l1.28-.32,11.15-3L44,8.43V0H12A32,32,0,0,1,0,25Z"/><path class="cls-2" d="M112,0A16,16,0,0,1,96,16,16,16,0,0,1,80,0H64V4.27l.67.16,6.4,1.68,1.86.48a22.36,22.36,0,0,0,2,4.85l-1,1.73-3.23,5.76-.32.62.51.5,4.88,4.88.51.51.4-.19,6.16-3.17,1.81-.93A22.56,22.56,0,0,0,89.12,23l.59,1.94,1.86,6.3.24.77h8.43l.21-.85,1.68-6.22.51-1.86a23.15,23.15,0,0,0,4.75-1.95l1.78,1h0l5.71,3a.52.52,0,0,0,.21.14l.43.24.53-.54L121,20.05l.51-.5-.19-.35-.16-.32-3-5.71-1-1.81a22.68,22.68,0,0,0,1.95-4.72L121,6.13v0L121.6,6l5.57-1.52.83-.22V0Z"/><path class="cls-2" d="M96,8a8,8,0,0,0,8-8H88A8,8,0,0,0,96,8Z"/></g></svg>