<svg id="Layer_1" data-name="Layer 1" xmlns="http://www.w3.org/2000/svg" viewBox="0 0 22 22"><title>sprite</title><rect x="8" width="6" height="6" fill="#dadada"/><rect x="17" y="2" width="4" height="4" fill="#dadada"/><polygon points="7 17 8 17 8 22 14 22 14 17 15 17 15 8 7 8 7 17" fill="#dadada"/><polygon points="17 8 17 14 17 19 16 19 16 21 21 21 21 19 21 14 22 14 22 8 17 8" fill="#dadada"/><rect x="1" y="2" width="4" height="4" fill="#dadada"/><polygon points="5 14 5 8 0 8 0 14 1 14 1 19 1 21 6 21 6 19 5 19 5 14" fill="#dadada"/></svg>