<?xml version="1.0" encoding="utf-8"?>
<!-- Generator: Adobe Illustrator 23.1.0, SVG Export Plug-In . SVG Version: 6.00 Build 0)  -->
<svg version="1.1" id="Layer_1" xmlns="http://www.w3.org/2000/svg" xmlns:xlink="http://www.w3.org/1999/xlink" x="0px" y="0px"
	 viewBox="0 0 32 32" style="enable-background:new 0 0 32 32;" xml:space="preserve">
<style type="text/css">
	.st0{fill:#77C049;}
	.st1{fill:#78C148;}
	.st2{fill:#ADB5C4;}
</style>
<polygon class="st2" points="24,22 24,25 26.5,25 27,24.55 27,22.56 26.46,22 "/>
<path class="st2" d="M1,18l4.76,13.34C5.9,31.73,6.28,32,6.7,32H31c0.55,0,1-0.45,1-1V19c0-0.55-0.45-1-1-1H1z M16,26.71L14.05,29
	h-1.11L11,26.71L11,21h1v5h0l0,0.34L13.4,28h0.19L15,26.34L15,26h0v-5h1L16,26.71z M21,22h-1v6h1v1h-3v-1h1v-6h-1v-1h3V22z M28,25
	L26.88,26L26,26v0h-2v3h-1v0v-8h1h2.88L28,22.15V25z"/>
</svg>
